<svg width="322" height="322" viewBox="0 0 322 322" fill="none" xmlns="http://www.w3.org/2000/svg">
<path d="M115.437 176.141C113.375 174.078 112.401 171.615 112.516 168.75C112.63 165.885 113.776 163.651 115.953 162.047C122.255 157.234 129.275 153.481 137.011 150.786C144.743 148.095 152.906 146.75 161.5 146.75C170.208 146.75 178.431 148.125 186.167 150.875C193.9 153.625 200.917 157.464 207.219 162.391C209.396 163.995 210.514 166.202 210.574 169.011C210.629 171.816 209.625 174.25 207.562 176.313C205.615 178.26 203.238 179.264 200.433 179.324C197.624 179.379 195.016 178.604 192.609 177C188.141 173.906 183.301 171.53 178.089 169.871C172.874 168.207 167.344 167.375 161.5 167.375C155.656 167.375 150.129 168.234 144.917 169.953C139.702 171.672 134.917 174.021 130.562 177C128.042 178.719 125.379 179.493 122.574 179.324C119.764 179.15 117.385 178.089 115.437 176.141ZM86.2187 147.094C84.2708 145.146 83.2969 142.767 83.2969 139.958C83.2969 137.153 84.3281 134.833 86.3906 133C96.5885 124.406 108.047 117.673 120.766 112.801C133.484 107.934 147.062 105.5 161.5 105.5C175.937 105.5 189.516 107.934 202.234 112.801C214.953 117.673 226.411 124.406 236.609 133C238.672 134.833 239.733 137.125 239.792 139.875C239.847 142.625 238.844 145.031 236.781 147.094C234.833 149.042 232.457 150.073 229.652 150.188C226.842 150.302 224.292 149.443 222 147.609C213.635 140.849 204.327 135.578 194.074 131.797C183.816 128.016 172.958 126.125 161.5 126.125C150.042 126.125 139.186 128.016 128.933 131.797C118.676 135.578 109.365 140.849 101 147.609C98.7083 149.443 96.16 150.302 93.355 150.188C90.5454 150.073 88.1667 149.042 86.2187 147.094ZM161.5 215.5C157.604 215.5 154.339 214.182 151.703 211.547C149.068 208.911 147.75 205.646 147.75 201.75C147.75 197.854 149.068 194.589 151.703 191.953C154.339 189.318 157.604 188 161.5 188C165.396 188 168.661 189.318 171.297 191.953C173.932 194.589 175.25 197.854 175.25 201.75C175.25 205.646 173.932 208.911 171.297 211.547C168.661 214.182 165.396 215.5 161.5 215.5Z" fill="#F4F4F5"/>
<path d="M201.25 268.333H241.5C248.617 268.333 255.442 265.506 260.474 260.474C265.506 255.442 268.333 248.617 268.333 241.5V201.25C268.333 197.692 269.747 194.279 272.263 191.763C274.779 189.247 278.192 187.833 281.75 187.833C285.308 187.833 288.721 189.247 291.237 191.763C293.753 194.279 295.167 197.692 295.167 201.25V241.5C295.167 255.733 289.512 269.384 279.448 279.448C269.384 289.512 255.733 295.167 241.5 295.167H80.5C66.2667 295.167 52.6164 289.512 42.552 279.448C32.4875 269.384 26.8334 255.733 26.8334 241.5V201.25C26.8334 197.692 28.2469 194.279 30.763 191.763C33.2791 189.247 36.6917 187.833 40.25 187.833C43.8083 187.833 47.2209 189.247 49.737 191.763C52.2531 194.279 53.6667 197.692 53.6667 201.25V241.5C53.6667 248.617 56.4938 255.442 61.526 260.474C66.5582 265.506 73.3834 268.333 80.5 268.333H120.75C124.308 268.333 127.721 269.747 130.237 272.263C132.753 274.779 134.167 278.192 134.167 281.75C134.167 285.308 132.753 288.721 130.237 291.237C127.721 293.753 124.308 295.167 120.75 295.167H201.25C197.692 295.167 194.279 293.753 191.763 291.237C189.247 288.721 187.833 285.308 187.833 281.75C187.833 278.192 189.247 274.779 191.763 272.263C194.279 269.747 197.692 268.333 201.25 268.333ZM53.6667 120.75C53.6667 124.308 52.2531 127.721 49.737 130.237C47.2209 132.753 43.8083 134.167 40.25 134.167C36.6917 134.167 33.2791 132.753 30.763 130.237C28.2469 127.721 26.8334 124.308 26.8334 120.75V80.5C26.8334 66.2667 32.4875 52.6164 42.552 42.552C52.6164 32.4875 66.2667 26.8334 80.5 26.8334L120.75 26.8334C124.308 26.8334 127.721 28.2469 130.237 30.763C132.753 33.2791 134.167 36.6917 134.167 40.25C134.167 43.8083 132.753 47.2209 130.237 49.737C127.721 52.2532 124.308 53.6667 120.75 53.6667H80.5C73.3834 53.6667 66.5582 56.4938 61.526 61.526C56.4938 66.5582 53.6667 73.3834 53.6667 80.5V120.75ZM268.333 120.75V80.5C268.333 73.3834 265.506 66.5582 260.474 61.526C255.442 56.4938 248.617 53.6667 241.5 53.6667H201.25C197.692 53.6667 194.279 52.2532 191.763 49.737C189.247 47.2209 187.833 43.8083 187.833 40.25C187.833 36.6917 189.247 33.2791 191.763 30.763C194.279 28.2469 197.692 26.8334 201.25 26.8334H241.5C255.733 26.8334 269.384 32.4875 279.448 42.552C289.512 52.6164 295.167 66.2667 295.167 80.5V120.75C295.167 124.308 293.753 127.721 291.237 130.237C288.721 132.753 285.308 134.167 281.75 134.167C278.192 134.167 274.779 132.753 272.263 130.237C269.747 127.721 268.333 124.308 268.333 120.75Z" fill="#F4F4F5"/>
</svg>
